<mxfile host="app.diagrams.net" modified="2024-03-21T03:45:34.469Z" agent="Mozilla/5.0 (Macintosh; Intel Mac OS X 10_15_7) AppleWebKit/537.36 (KHTML, like Gecko) Chrome/122.0.0.0 Safari/537.36" version="24.0.7" etag="gxvit0NRud0IKn9LNukx" type="github">
  <diagram id="R2lEEEUBdFMjLlhIrx00" name="Page-1">
    <mxGraphModel dx="1306" dy="826" grid="1" gridSize="10" guides="1" tooltips="1" connect="1" arrows="1" fold="1" page="1" pageScale="1" pageWidth="3300" pageHeight="4681" math="0" shadow="0" extFonts="Permanent Marker^https://fonts.googleapis.com/css?family=Permanent+Marker">
      <root>
        <mxCell id="0" />
        <mxCell id="1" parent="0" />
        <mxCell id="3O3qi1ia1qQcIfNA0ha3-78" style="edgeStyle=orthogonalEdgeStyle;rounded=0;orthogonalLoop=1;jettySize=auto;html=1;exitX=0;exitY=0.5;exitDx=0;exitDy=0;entryX=1;entryY=0.5;entryDx=0;entryDy=0;" edge="1" parent="1" source="3O3qi1ia1qQcIfNA0ha3-50" target="3O3qi1ia1qQcIfNA0ha3-77">
          <mxGeometry relative="1" as="geometry" />
        </mxCell>
        <mxCell id="3O3qi1ia1qQcIfNA0ha3-82" style="edgeStyle=orthogonalEdgeStyle;rounded=0;orthogonalLoop=1;jettySize=auto;html=1;exitX=0;exitY=0.75;exitDx=0;exitDy=0;entryX=1;entryY=0.5;entryDx=0;entryDy=0;" edge="1" parent="1" source="3O3qi1ia1qQcIfNA0ha3-50" target="3O3qi1ia1qQcIfNA0ha3-80">
          <mxGeometry relative="1" as="geometry" />
        </mxCell>
        <mxCell id="3O3qi1ia1qQcIfNA0ha3-83" style="edgeStyle=orthogonalEdgeStyle;rounded=0;orthogonalLoop=1;jettySize=auto;html=1;exitX=1;exitY=0.25;exitDx=0;exitDy=0;entryX=0;entryY=0.5;entryDx=0;entryDy=0;" edge="1" parent="1" source="3O3qi1ia1qQcIfNA0ha3-50" target="3O3qi1ia1qQcIfNA0ha3-65">
          <mxGeometry relative="1" as="geometry" />
        </mxCell>
        <mxCell id="3O3qi1ia1qQcIfNA0ha3-85" style="edgeStyle=orthogonalEdgeStyle;rounded=0;orthogonalLoop=1;jettySize=auto;html=1;exitX=1;exitY=0.5;exitDx=0;exitDy=0;entryX=0;entryY=0.5;entryDx=0;entryDy=0;" edge="1" parent="1" source="3O3qi1ia1qQcIfNA0ha3-50" target="3O3qi1ia1qQcIfNA0ha3-84">
          <mxGeometry relative="1" as="geometry" />
        </mxCell>
        <mxCell id="3O3qi1ia1qQcIfNA0ha3-50" value="elastic search" style="rounded=1;whiteSpace=wrap;html=1;" vertex="1" parent="1">
          <mxGeometry x="410" y="460" width="120" height="60" as="geometry" />
        </mxCell>
        <mxCell id="3O3qi1ia1qQcIfNA0ha3-52" value="集群架构规划实践" style="rounded=1;whiteSpace=wrap;html=1;" vertex="1" parent="1">
          <mxGeometry x="820" y="150" width="120" height="50" as="geometry" />
        </mxCell>
        <mxCell id="3O3qi1ia1qQcIfNA0ha3-54" value="index settings" style="rounded=1;whiteSpace=wrap;html=1;" vertex="1" parent="1">
          <mxGeometry x="820" y="230" width="120" height="50" as="geometry" />
        </mxCell>
        <mxCell id="3O3qi1ia1qQcIfNA0ha3-55" value="index mapping" style="rounded=1;whiteSpace=wrap;html=1;" vertex="1" parent="1">
          <mxGeometry x="820" y="300" width="120" height="50" as="geometry" />
        </mxCell>
        <mxCell id="3O3qi1ia1qQcIfNA0ha3-56" value="写优化" style="rounded=1;whiteSpace=wrap;html=1;" vertex="1" parent="1">
          <mxGeometry x="820" y="370" width="120" height="50" as="geometry" />
        </mxCell>
        <mxCell id="3O3qi1ia1qQcIfNA0ha3-58" value="检索聚合优化" style="rounded=1;whiteSpace=wrap;html=1;" vertex="1" parent="1">
          <mxGeometry x="820" y="435" width="120" height="50" as="geometry" />
        </mxCell>
        <mxCell id="3O3qi1ia1qQcIfNA0ha3-59" value="其它业务优化" style="rounded=1;whiteSpace=wrap;html=1;" vertex="1" parent="1">
          <mxGeometry x="820" y="510" width="120" height="50" as="geometry" />
        </mxCell>
        <mxCell id="3O3qi1ia1qQcIfNA0ha3-70" style="edgeStyle=orthogonalEdgeStyle;rounded=0;orthogonalLoop=1;jettySize=auto;html=1;exitX=1;exitY=0.5;exitDx=0;exitDy=0;entryX=0;entryY=0.5;entryDx=0;entryDy=0;endArrow=none;endFill=0;" edge="1" parent="1" source="3O3qi1ia1qQcIfNA0ha3-65" target="3O3qi1ia1qQcIfNA0ha3-52">
          <mxGeometry relative="1" as="geometry" />
        </mxCell>
        <mxCell id="3O3qi1ia1qQcIfNA0ha3-71" style="edgeStyle=orthogonalEdgeStyle;rounded=0;orthogonalLoop=1;jettySize=auto;html=1;exitX=1;exitY=0.5;exitDx=0;exitDy=0;entryX=0;entryY=0.5;entryDx=0;entryDy=0;endArrow=none;endFill=0;" edge="1" parent="1" source="3O3qi1ia1qQcIfNA0ha3-65" target="3O3qi1ia1qQcIfNA0ha3-54">
          <mxGeometry relative="1" as="geometry" />
        </mxCell>
        <mxCell id="3O3qi1ia1qQcIfNA0ha3-72" style="edgeStyle=orthogonalEdgeStyle;rounded=0;orthogonalLoop=1;jettySize=auto;html=1;exitX=1;exitY=0.5;exitDx=0;exitDy=0;entryX=0;entryY=0.5;entryDx=0;entryDy=0;endArrow=none;endFill=0;" edge="1" parent="1" source="3O3qi1ia1qQcIfNA0ha3-65" target="3O3qi1ia1qQcIfNA0ha3-55">
          <mxGeometry relative="1" as="geometry" />
        </mxCell>
        <mxCell id="3O3qi1ia1qQcIfNA0ha3-73" style="edgeStyle=orthogonalEdgeStyle;rounded=0;orthogonalLoop=1;jettySize=auto;html=1;exitX=1;exitY=0.5;exitDx=0;exitDy=0;entryX=0;entryY=0.5;entryDx=0;entryDy=0;endArrow=none;endFill=0;" edge="1" parent="1" source="3O3qi1ia1qQcIfNA0ha3-65" target="3O3qi1ia1qQcIfNA0ha3-56">
          <mxGeometry relative="1" as="geometry" />
        </mxCell>
        <mxCell id="3O3qi1ia1qQcIfNA0ha3-74" style="edgeStyle=orthogonalEdgeStyle;rounded=0;orthogonalLoop=1;jettySize=auto;html=1;exitX=1;exitY=0.5;exitDx=0;exitDy=0;entryX=0;entryY=0.5;entryDx=0;entryDy=0;endArrow=none;endFill=0;" edge="1" parent="1" source="3O3qi1ia1qQcIfNA0ha3-65" target="3O3qi1ia1qQcIfNA0ha3-58">
          <mxGeometry relative="1" as="geometry" />
        </mxCell>
        <mxCell id="3O3qi1ia1qQcIfNA0ha3-76" style="edgeStyle=orthogonalEdgeStyle;rounded=0;orthogonalLoop=1;jettySize=auto;html=1;exitX=1;exitY=0.5;exitDx=0;exitDy=0;entryX=0;entryY=0.5;entryDx=0;entryDy=0;endArrow=none;endFill=0;" edge="1" parent="1" source="3O3qi1ia1qQcIfNA0ha3-65" target="3O3qi1ia1qQcIfNA0ha3-59">
          <mxGeometry relative="1" as="geometry" />
        </mxCell>
        <mxCell id="3O3qi1ia1qQcIfNA0ha3-65" value="性能优化" style="ellipse;whiteSpace=wrap;html=1;" vertex="1" parent="1">
          <mxGeometry x="590" y="320" width="120" height="80" as="geometry" />
        </mxCell>
        <mxCell id="3O3qi1ia1qQcIfNA0ha3-77" value="基本使用" style="ellipse;whiteSpace=wrap;html=1;" vertex="1" parent="1">
          <mxGeometry x="190" y="320" width="120" height="80" as="geometry" />
        </mxCell>
        <mxCell id="3O3qi1ia1qQcIfNA0ha3-80" value="原理" style="ellipse;whiteSpace=wrap;html=1;" vertex="1" parent="1">
          <mxGeometry x="195" y="590" width="110" height="70" as="geometry" />
        </mxCell>
        <mxCell id="3O3qi1ia1qQcIfNA0ha3-84" value="最佳实践&lt;div&gt;注意事项&lt;/div&gt;" style="ellipse;whiteSpace=wrap;html=1;" vertex="1" parent="1">
          <mxGeometry x="600" y="600" width="120" height="80" as="geometry" />
        </mxCell>
      </root>
    </mxGraphModel>
  </diagram>
</mxfile>
